<svg width="120" height="120" viewBox="0 0 120 120" fill="none" xmlns="http://www.w3.org/2000/svg">
<rect width="120" height="120" fill="white"/>
<path d="M34 45C34 42.7909 35.7909 41 38 41H75C77.2092 41 79 42.7909 79 45V102H34V45Z" fill="#3354F4"/>
<path d="M51 89C51 87.8954 51.8954 87 53 87H59C60.1046 87 61 87.8954 61 89V102H51V89Z" fill="white"/>
<rect x="68" y="36" width="12" height="66" fill="#3354F4"/>
<path d="M31.5 102C30.6716 102 30 101.328 30 100.5V100.5C30 99.6716 30.6716 99 31.5 99L82.5 99C83.3284 99 84 99.6716 84 100.5V100.5C84 101.328 83.3284 102 82.5 102L31.5 102Z" fill="#3354F4"/>
<path d="M39 49C39 47.8954 39.8954 47 41 47H45C46.1046 47 47 47.8954 47 49V53C47 54.1046 46.1046 55 45 55H41C39.8954 55 39 54.1046 39 53V49Z" fill="white" fill-opacity="0.6"/>
<path d="M52 49C52 47.8954 52.8954 47 54 47H58C59.1046 47 60 47.8954 60 49V53C60 54.1046 59.1046 55 58 55H54C52.8954 55 52 54.1046 52 53V49Z" fill="white" fill-opacity="0.6"/>
<path d="M65 49C65 47.8954 65.8954 47 67 47H71C72.1046 47 73 47.8954 73 49V53C73 54.1046 72.1046 55 71 55H67C65.8954 55 65 54.1046 65 53V49Z" fill="white" fill-opacity="0.6"/>
<path d="M39 62C39 60.8954 39.8954 60 41 60H45C46.1046 60 47 60.8954 47 62V66C47 67.1046 46.1046 68 45 68H41C39.8954 68 39 67.1046 39 66V62Z" fill="white" fill-opacity="0.6"/>
<path d="M52 62C52 60.8954 52.8954 60 54 60H58C59.1046 60 60 60.8954 60 62V66C60 67.1046 59.1046 68 58 68H54C52.8954 68 52 67.1046 52 66V62Z" fill="white" fill-opacity="0.6"/>
<path d="M65 62C65 60.8954 65.8954 60 67 60H71C72.1046 60 73 60.8954 73 62V66C73 67.1046 72.1046 68 71 68H67C65.8954 68 65 67.1046 65 66V62Z" fill="white" fill-opacity="0.6"/>
<path d="M39 75C39 73.8954 39.8954 73 41 73H45C46.1046 73 47 73.8954 47 75V79C47 80.1046 46.1046 81 45 81H41C39.8954 81 39 80.1046 39 79V75Z" fill="white" fill-opacity="0.6"/>
<path d="M52 75C52 73.8954 52.8954 73 54 73H58C59.1046 73 60 73.8954 60 75V79C60 80.1046 59.1046 81 58 81H54C52.8954 81 52 80.1046 52 79V75Z" fill="white" fill-opacity="0.6"/>
<path d="M65 75C65 73.8954 65.8954 73 67 73H71C72.1046 73 73 73.8954 73 75V79C73 80.1046 72.1046 81 71 81H67C65.8954 81 65 80.1046 65 79V75Z" fill="white" fill-opacity="0.6"/>
<path d="M73.6984 19.0749C74.0983 18.5387 74.9017 18.5387 75.3016 19.0749L86.7318 34.4022C87.2237 35.0618 86.753 36 85.9302 36H63.0698C62.247 36 61.7763 35.0618 62.2682 34.4022L73.6984 19.0749Z" fill="#3354F4"/>
<mask id="mask0_195_949" style="mask-type:alpha" maskUnits="userSpaceOnUse" x="34" y="18" width="53" height="84">
<path d="M34 45C34 42.7909 35.7909 41 38 41H75C77.2091 41 79 42.7909 79 45V102H34V45Z" fill="#3354F4"/>
<path d="M51 89C51 87.8954 51.8954 87 53 87H59C60.1046 87 61 87.8954 61 89V102H51V89Z" fill="white"/>
<rect x="68" y="36" width="12" height="66" fill="#3354F4"/>
<path d="M73.6984 19.0749C74.0983 18.5387 74.9017 18.5387 75.3016 19.0749L86.7318 34.4022C87.2237 35.0618 86.753 36 85.9302 36H63.0698C62.247 36 61.7763 35.0618 62.2682 34.4022L73.6984 19.0749Z" fill="#3354F4"/>
</mask>
<g mask="url(#mask0_195_949)">
<path d="M68.8848 60.2721C69.5377 58.562 69.4985 56.9652 68.7674 55.4815C68.0583 53.9903 66.6248 52.7163 64.4667 51.6595C63.0379 50.9598 61.7562 50.5628 60.6214 50.4684C59.4867 50.374 58.5209 50.5376 57.7239 50.9593C56.9342 51.366 56.3279 51.9825 55.9049 52.8087C55.5398 53.4787 55.3786 54.1471 55.4212 54.8138C55.4787 55.4877 55.6992 56.1678 56.0829 56.8539C56.4887 57.5324 57.0355 58.2245 57.7232 58.9303C58.4109 59.6361 59.221 60.3558 60.1535 61.0892L63.6453 63.9063C65.6671 65.5053 67.3407 67.1368 68.6663 68.8008C70.0068 70.4721 70.988 72.1612 71.6099 73.8681C72.2466 75.5823 72.5093 77.3255 72.398 79.0978C72.2867 80.87 71.7902 82.6751 70.9086 84.5131C69.4798 87.3931 67.537 89.514 65.0803 90.8758C62.6235 92.2377 59.7711 92.806 56.523 92.5809C53.2898 92.3631 49.7682 91.3212 45.9581 89.4554C42.1331 87.5823 39.0798 85.3768 36.7983 82.8387C34.5168 80.3006 33.1594 77.477 32.726 74.3677C32.2927 71.2585 32.9283 67.907 34.6328 64.3131L45.2148 69.4951C44.5826 71.0123 44.3757 72.4333 44.5942 73.7581C44.8127 75.083 45.4082 76.2972 46.3808 77.4009C47.3683 78.5119 48.6732 79.4646 50.2955 80.259C51.7838 80.9878 53.1473 81.4064 54.3859 81.5147C55.6394 81.6304 56.7238 81.4694 57.6392 81.032C58.5546 80.5946 59.2457 79.9181 59.7125 79.0026C60.1203 78.1321 60.2132 77.2642 59.9911 76.3989C59.7763 75.5187 59.235 74.5894 58.3672 73.6108C57.5215 72.6247 56.36 71.53 54.8825 70.3267L50.6516 66.8709C47.1373 64.0244 44.7371 61.0315 43.4512 57.8922C42.1726 54.7381 42.3898 51.4308 44.1028 47.9703C45.4727 45.1352 47.4453 43.0288 50.0205 41.6512C52.5957 40.2736 55.5292 39.6527 58.821 39.7885C62.1128 39.9244 65.4926 40.8413 68.9604 42.5395C72.5026 44.2741 75.2808 46.3819 77.2951 48.8629C79.3314 51.3363 80.5431 54.0056 80.9299 56.8706C81.3168 59.7356 80.8291 62.5968 79.4668 65.4541L68.8848 60.2721Z" fill="#09208C"/>
</g>
<path d="M51 89C51 87.8954 51.8954 87 53 87H59C60.1046 87 61 87.8954 61 89V102H51V89Z" fill="#ADBBFB"/>
</svg>
